<svg width="27" height="27" viewBox="0 0 27 27" fill="none" xmlns="http://www.w3.org/2000/svg">
<path fill-rule="evenodd" clip-rule="evenodd" d="M13.5 3.375C10.7501 3.375 10.4058 3.38648 9.3258 3.43575C8.24783 3.48503 7.5114 3.65648 6.86745 3.9069C6.19245 4.1607 5.58022 4.55895 5.07397 5.07465C4.5591 5.58032 4.1606 6.19211 3.90623 6.86745C3.65715 7.5114 3.48503 8.2485 3.43575 9.32648C3.38715 10.4058 3.375 10.7494 3.375 13.5C3.375 16.2506 3.38648 16.5942 3.43575 17.6742C3.48503 18.7522 3.65648 19.4886 3.9069 20.1326C4.1607 20.8076 4.55895 21.4198 5.07465 21.926C5.58033 22.4409 6.19212 22.8394 6.86745 23.0938C7.5114 23.3435 8.24783 23.515 9.3258 23.5643C10.4058 23.6135 10.7501 23.625 13.5 23.625C16.25 23.625 16.5942 23.6135 17.6742 23.5643C18.7522 23.515 19.4886 23.3435 20.1326 23.0931C20.8076 22.8393 21.4198 22.4411 21.926 21.9254C22.4409 21.4197 22.8394 20.8079 23.0938 20.1326C23.3435 19.4886 23.515 18.7522 23.5643 17.6742C23.6135 16.5942 23.625 16.25 23.625 13.5C23.625 10.7501 23.6135 10.4058 23.5643 9.3258C23.515 8.24783 23.3435 7.5114 23.0931 6.86745C22.8389 6.19182 22.4404 5.57977 21.9254 5.07397C21.4197 4.5591 20.8079 4.1606 20.1326 3.90623C19.4886 3.65715 18.7515 3.48503 17.6735 3.43575C16.5942 3.38715 16.2506 3.375 13.5 3.375ZM13.5 5.19953C16.2034 5.19953 16.524 5.20965 17.5919 5.25825C18.5787 5.30348 19.1147 5.4675 19.4717 5.60722C19.9442 5.79015 20.2817 6.0102 20.6361 6.3639C20.9905 6.71828 21.2099 7.05577 21.3928 7.52828C21.5318 7.88535 21.6965 8.4213 21.7417 9.40815C21.7903 10.476 21.8005 10.7966 21.8005 13.5C21.8005 16.2034 21.7903 16.524 21.7417 17.5919C21.6965 18.5787 21.5325 19.1147 21.3928 19.4717C21.2307 19.9115 20.9722 20.3094 20.6361 20.6361C20.3095 20.9722 19.9116 21.2308 19.4717 21.3928C19.1147 21.5318 18.5787 21.6965 17.5919 21.7417C16.524 21.7903 16.2041 21.8005 13.5 21.8005C10.7959 21.8005 10.476 21.7903 9.40815 21.7417C8.4213 21.6965 7.88535 21.5325 7.52828 21.3928C7.08848 21.2307 6.6906 20.9722 6.3639 20.6361C6.02787 20.3094 5.76931 19.9115 5.60722 19.4717C5.46817 19.1147 5.30348 18.5787 5.25825 17.5919C5.20965 16.524 5.19953 16.2034 5.19953 13.5C5.19953 10.7966 5.20965 10.476 5.25825 9.40815C5.30348 8.4213 5.4675 7.88535 5.60722 7.52828C5.79015 7.05577 6.0102 6.71828 6.3639 6.3639C6.69056 6.02778 7.08845 5.76921 7.52828 5.60722C7.88535 5.46817 8.4213 5.30348 9.40815 5.25825C10.476 5.20965 10.7966 5.19953 13.5 5.19953Z" fill="#475467"/>
<path fill-rule="evenodd" clip-rule="evenodd" d="M13.4992 16.8785C13.0555 16.8785 12.6162 16.7911 12.2063 16.6213C11.7964 16.4516 11.424 16.2027 11.1103 15.889C10.7966 15.5753 10.5477 15.2029 10.378 14.793C10.2082 14.3831 10.1208 13.9438 10.1208 13.5001C10.1208 13.0565 10.2082 12.6172 10.378 12.2073C10.5477 11.7974 10.7966 11.425 11.1103 11.1113C11.424 10.7975 11.7964 10.5487 12.2063 10.3789C12.6162 10.2091 13.0555 10.1218 13.4992 10.1218C14.3952 10.1218 15.2545 10.4777 15.888 11.1113C16.5216 11.7448 16.8775 12.6041 16.8775 13.5001C16.8775 14.3961 16.5216 15.2554 15.888 15.889C15.2545 16.5226 14.3952 16.8785 13.4992 16.8785ZM13.4992 8.29588C12.1189 8.29588 10.7952 8.84418 9.81921 9.82017C8.84322 10.7962 8.29492 12.1199 8.29492 13.5001C8.29492 14.8804 8.84322 16.2041 9.81921 17.1801C10.7952 18.1561 12.1189 18.7044 13.4992 18.7044C14.8794 18.7044 16.2031 18.1561 17.1791 17.1801C18.1551 16.2041 18.7034 14.8804 18.7034 13.5001C18.7034 12.1199 18.1551 10.7962 17.1791 9.82017C16.2031 8.84418 14.8794 8.29588 13.4992 8.29588ZM20.2174 8.20138C20.2174 8.52764 20.0878 8.84055 19.8571 9.07125C19.6264 9.30196 19.3135 9.43157 18.9873 9.43157C18.661 9.43157 18.3481 9.30196 18.1174 9.07125C17.8867 8.84055 17.7571 8.52764 17.7571 8.20138C17.7571 7.87511 17.8867 7.56221 18.1174 7.33151C18.3481 7.1008 18.661 6.97119 18.9873 6.97119C19.3135 6.97119 19.6264 7.1008 19.8571 7.33151C20.0878 7.56221 20.2174 7.87511 20.2174 8.20138Z" fill="#475467"/>
</svg>
