<svg width="27" height="27" viewBox="0 0 27 27" fill="none" xmlns="http://www.w3.org/2000/svg">
<path d="M23.625 4.86397V22.136C23.625 22.5309 23.4681 22.9097 23.1889 23.1889C22.9097 23.4681 22.5309 23.625 22.136 23.625H4.86397C4.46907 23.625 4.09035 23.4681 3.81111 23.1889C3.53187 22.9097 3.375 22.5309 3.375 22.136V4.86397C3.375 4.46907 3.53187 4.09035 3.81111 3.81111C4.09035 3.53187 4.46907 3.375 4.86397 3.375H22.136C22.5309 3.375 22.9097 3.53187 23.1889 3.81111C23.4681 4.09035 23.625 4.46907 23.625 4.86397ZM9.33088 11.1176H6.35294V20.6471H9.33088V11.1176ZM9.5989 7.84191C9.60047 7.61665 9.55765 7.39329 9.4729 7.18458C9.38814 6.97587 9.26311 6.7859 9.10493 6.62551C8.94676 6.46513 8.75854 6.33747 8.55103 6.24982C8.34352 6.16218 8.12077 6.11626 7.89551 6.11471H7.84191C7.38383 6.11471 6.94451 6.29668 6.62059 6.62059C6.29668 6.94451 6.11471 7.38383 6.11471 7.84191C6.11471 8.29999 6.29668 8.73932 6.62059 9.06323C6.94451 9.38714 7.38383 9.56912 7.84191 9.56912C8.06718 9.57466 8.29134 9.53576 8.50157 9.45464C8.71181 9.37352 8.904 9.25177 9.06716 9.09635C9.23033 8.94093 9.36127 8.75488 9.45251 8.54884C9.54374 8.34279 9.59349 8.12079 9.5989 7.89551V7.84191ZM20.6471 14.8579C20.6471 11.9932 18.8246 10.8794 17.014 10.8794C16.4211 10.8497 15.8309 10.976 15.3021 11.2456C14.7733 11.5152 14.3245 11.9188 14.0003 12.416H13.9169V11.1176H11.1176V20.6471H14.0956V15.5786C14.0525 15.0595 14.2161 14.5444 14.5506 14.1452C14.8852 13.7459 15.3637 13.4948 15.8824 13.4464H15.9955C16.9425 13.4464 17.6453 14.042 17.6453 15.5429V20.6471H20.6232L20.6471 14.8579Z" fill="#475467"/>
</svg>
